<mxfile host="drawio-plugin" modified="2021-04-29T02:23:27.567Z" agent="5.0 (Windows NT 6.2; Win64; x64) AppleWebKit/537.36 (KHTML, like Gecko) Chrome/87.0.4280.141 Safari/537.36" etag="zg1tVGg5mro-eGETWWvQ" version="13.7.9" type="embed"><diagram id="4RXrT1XN1_60NIZp8t5y" name="Page-1"><mxGraphModel dx="1034" dy="415" grid="1" gridSize="10" guides="1" tooltips="1" connect="1" arrows="1" fold="1" page="1" pageScale="1" pageWidth="850" pageHeight="1100" math="0" shadow="0"><root><mxCell id="0"/><mxCell id="1" parent="0"/><mxCell id="5" style="edgeStyle=orthogonalEdgeStyle;rounded=0;orthogonalLoop=1;jettySize=auto;html=1;exitX=1;exitY=0.25;exitDx=0;exitDy=0;entryX=0;entryY=0.25;entryDx=0;entryDy=0;fontSize=18;" parent="1" source="2" target="4" edge="1"><mxGeometry relative="1" as="geometry"/></mxCell><mxCell id="7" style="edgeStyle=orthogonalEdgeStyle;rounded=0;orthogonalLoop=1;jettySize=auto;html=1;exitX=1;exitY=0.75;exitDx=0;exitDy=0;entryX=0;entryY=0.75;entryDx=0;entryDy=0;fontSize=18;" parent="1" source="2" target="4" edge="1"><mxGeometry relative="1" as="geometry"/></mxCell><mxCell id="2" value="客&lt;br&gt;&lt;br&gt;户&lt;br&gt;&lt;br&gt;端" style="rounded=0;whiteSpace=wrap;html=1;" parent="1" vertex="1"><mxGeometry x="24" y="82" width="70" height="320" as="geometry"/></mxCell><mxCell id="3" value="三次握手" style="text;html=1;strokeColor=none;fillColor=none;align=center;verticalAlign=middle;whiteSpace=wrap;rounded=0;fontSize=18;" parent="1" vertex="1"><mxGeometry x="99" y="12" width="165" height="30" as="geometry"/></mxCell><mxCell id="6" style="rounded=0;orthogonalLoop=1;jettySize=auto;html=1;exitX=-0.014;exitY=0.375;exitDx=0;exitDy=0;entryX=1;entryY=0.622;entryDx=0;entryDy=0;fontSize=18;entryPerimeter=0;exitPerimeter=0;" parent="1" source="4" target="2" edge="1"><mxGeometry relative="1" as="geometry"/></mxCell><mxCell id="4" value="服&lt;br&gt;&lt;br&gt;务&lt;br&gt;&lt;br&gt;端" style="rounded=0;whiteSpace=wrap;html=1;" parent="1" vertex="1"><mxGeometry x="264" y="82" width="70" height="320" as="geometry"/></mxCell><mxCell id="12" style="edgeStyle=none;rounded=0;orthogonalLoop=1;jettySize=auto;html=1;exitX=1;exitY=0.128;exitDx=0;exitDy=0;entryX=0;entryY=0.25;entryDx=0;entryDy=0;fontSize=18;exitPerimeter=0;" parent="1" source="9" target="10" edge="1"><mxGeometry relative="1" as="geometry"><mxPoint x="534" y="122" as="sourcePoint"/><mxPoint x="744" y="122" as="targetPoint"/></mxGeometry></mxCell><mxCell id="13" style="edgeStyle=none;rounded=0;orthogonalLoop=1;jettySize=auto;html=1;exitX=1;exitY=0.75;exitDx=0;exitDy=0;fontSize=18;entryX=-0.002;entryY=0.949;entryDx=0;entryDy=0;entryPerimeter=0;" parent="1" source="9" target="10" edge="1"><mxGeometry relative="1" as="geometry"><mxPoint x="534" y="362" as="sourcePoint"/><mxPoint x="744" y="362" as="targetPoint"/></mxGeometry></mxCell><mxCell id="9" value="客&lt;br&gt;&lt;br&gt;户&lt;br&gt;&lt;br&gt;端" style="rounded=0;whiteSpace=wrap;html=1;" parent="1" vertex="1"><mxGeometry x="464" y="82" width="70" height="338" as="geometry"/></mxCell><mxCell id="14" style="edgeStyle=none;rounded=0;orthogonalLoop=1;jettySize=auto;html=1;entryX=1;entryY=0.75;entryDx=0;entryDy=0;fontSize=18;exitX=0;exitY=0.5;exitDx=0;exitDy=0;" parent="1" source="10" target="9" edge="1"><mxGeometry relative="1" as="geometry"/></mxCell><mxCell id="15" style="edgeStyle=none;rounded=0;orthogonalLoop=1;jettySize=auto;html=1;fontSize=18;exitX=0;exitY=0.25;exitDx=0;exitDy=0;entryX=1;entryY=0.5;entryDx=0;entryDy=0;" parent="1" source="10" target="9" edge="1"><mxGeometry relative="1" as="geometry"><mxPoint x="740" y="120" as="sourcePoint"/></mxGeometry></mxCell><mxCell id="10" value="服&lt;br&gt;&lt;br&gt;务&lt;br&gt;&lt;br&gt;端" style="rounded=0;whiteSpace=wrap;html=1;" parent="1" vertex="1"><mxGeometry x="744" y="82" width="70" height="320" as="geometry"/></mxCell><mxCell id="11" value="四次挥手" style="text;html=1;strokeColor=none;fillColor=none;align=center;verticalAlign=middle;whiteSpace=wrap;rounded=0;fontSize=18;" parent="1" vertex="1"><mxGeometry x="554" y="12" width="165" height="30" as="geometry"/></mxCell><mxCell id="17" value="SYN（请求建立连接）" style="text;html=1;strokeColor=none;fillColor=none;align=center;verticalAlign=middle;whiteSpace=wrap;rounded=0;fontSize=12;" parent="1" vertex="1"><mxGeometry x="116.5" y="142" width="130" height="20" as="geometry"/></mxCell><mxCell id="19" value="ACK（针对SYN的确认应答）&lt;br&gt;SYN（请求建立连接）" style="text;html=1;strokeColor=none;fillColor=none;align=center;verticalAlign=middle;whiteSpace=wrap;rounded=0;fontSize=12;" parent="1" vertex="1"><mxGeometry x="97.75" y="232" width="167.5" height="20" as="geometry"/></mxCell><mxCell id="21" value="ACK（针对SYN的确认应答）" style="text;html=1;strokeColor=none;fillColor=none;align=center;verticalAlign=middle;whiteSpace=wrap;rounded=0;fontSize=12;" parent="1" vertex="1"><mxGeometry x="97.75" y="302" width="167.5" height="20" as="geometry"/></mxCell><mxCell id="22" value="FIN（请求切断连接）" style="text;html=1;strokeColor=none;fillColor=none;align=center;verticalAlign=middle;whiteSpace=wrap;rounded=0;fontSize=12;" parent="1" vertex="1"><mxGeometry x="574" y="102" width="130" height="20" as="geometry"/></mxCell><mxCell id="23" value="ACK（针对FIN的确认应答）" style="text;html=1;strokeColor=none;fillColor=none;align=center;verticalAlign=middle;whiteSpace=wrap;rounded=0;fontSize=12;" parent="1" vertex="1"><mxGeometry x="568" y="192" width="160" height="20" as="geometry"/></mxCell><mxCell id="24" value="ACK（针对FIN的确认应答）" style="text;html=1;strokeColor=none;fillColor=none;align=center;verticalAlign=middle;whiteSpace=wrap;rounded=0;fontSize=12;" parent="1" vertex="1"><mxGeometry x="568" y="346" width="160" height="20" as="geometry"/></mxCell><mxCell id="25" value="FIN（请求切断连接）" style="text;html=1;strokeColor=none;fillColor=none;align=center;verticalAlign=middle;whiteSpace=wrap;rounded=0;fontSize=12;" parent="1" vertex="1"><mxGeometry x="574" y="250" width="130" height="20" as="geometry"/></mxCell><mxCell id="26" value="&lt;h1&gt;名词解释&lt;/h1&gt;&lt;p&gt;ACK Positive Acknowledgement 肯定应答信号&lt;/p&gt;&lt;p&gt;NACK&amp;nbsp;Negative Acknowledgement 否定应答信号&lt;/p&gt;&lt;p&gt;SYN Synchronize Sequence Numbers 同步序列编号，TCP/IP建立连接时使用的握手信号&lt;/p&gt;&lt;p&gt;FIN 断开连接&lt;/p&gt;&lt;p&gt;MSL Maximum Segment Lifetime，报文最大生存时间&lt;br&gt;&lt;/p&gt;&lt;p&gt;Linux 默认 MSL：cat /proc/sys/net/ipv4/tcp_fin_timeout 60s&lt;/p&gt;" style="text;html=1;strokeColor=none;fillColor=none;spacing=5;spacingTop=-20;whiteSpace=wrap;overflow=hidden;rounded=0;fontSize=12;" parent="1" vertex="1"><mxGeometry x="70" y="480" width="340" height="220" as="geometry"/></mxCell><mxCell id="27" value="FIN_WAIT1" style="text;html=1;strokeColor=none;fillColor=none;align=center;verticalAlign=middle;whiteSpace=wrap;rounded=0;fontSize=12;fontColor=#66FF66;" parent="1" vertex="1"><mxGeometry x="503" y="174" width="80" height="18" as="geometry"/></mxCell><mxCell id="28" value="CLOSE_WAIT" style="text;html=1;strokeColor=none;fillColor=none;align=center;verticalAlign=middle;whiteSpace=wrap;rounded=0;fontSize=12;fontColor=#66FF66;" parent="1" vertex="1"><mxGeometry x="690" y="212" width="90" height="18" as="geometry"/></mxCell><mxCell id="29" value="FIN_WAIT2" style="text;html=1;strokeColor=none;fillColor=none;align=center;verticalAlign=middle;whiteSpace=wrap;rounded=0;fontSize=12;fontColor=#66FF66;" parent="1" vertex="1"><mxGeometry x="503" y="284" width="80" height="18" as="geometry"/></mxCell><mxCell id="31" style="edgeStyle=none;rounded=0;orthogonalLoop=1;jettySize=auto;html=1;entryX=0.5;entryY=1;entryDx=0;entryDy=0;fontSize=12;" parent="1" source="29" target="29" edge="1"><mxGeometry relative="1" as="geometry"/></mxCell><mxCell id="34" value="LAST_ACK" style="text;html=1;strokeColor=none;fillColor=none;align=center;verticalAlign=middle;whiteSpace=wrap;rounded=0;fontSize=12;fontColor=#66FF66;" parent="1" vertex="1"><mxGeometry x="694" y="304" width="90" height="18" as="geometry"/></mxCell><mxCell id="40" value="等待 2MSL" style="edgeStyle=none;rounded=0;orthogonalLoop=1;jettySize=auto;html=1;entryX=0;entryY=0.5;entryDx=0;entryDy=0;fontSize=12;fontColor=#66FF66;exitX=0;exitY=0.5;exitDx=0;exitDy=0;" parent="1" source="35" target="36" edge="1"><mxGeometry x="-0.0092" y="15" relative="1" as="geometry"><Array as="points"><mxPoint x="440" y="375"/><mxPoint x="440" y="411"/></Array><mxPoint x="-15" y="15" as="offset"/></mxGeometry></mxCell><mxCell id="35" value="TIME_WAIT" style="text;html=1;strokeColor=none;fillColor=none;align=center;verticalAlign=middle;whiteSpace=wrap;rounded=0;fontSize=12;fontColor=#66FF66;" parent="1" vertex="1"><mxGeometry x="494" y="366" width="80" height="18" as="geometry"/></mxCell><mxCell id="36" value="CLOSED" style="text;html=1;strokeColor=none;fillColor=none;align=center;verticalAlign=middle;whiteSpace=wrap;rounded=0;fontSize=12;fontColor=#FF3333;" parent="1" vertex="1"><mxGeometry x="459" y="402" width="80" height="18" as="geometry"/></mxCell><mxCell id="38" value="CLOSED" style="text;html=1;strokeColor=none;fillColor=none;align=center;verticalAlign=middle;whiteSpace=wrap;rounded=0;fontSize=12;fontColor=#FF3333;" parent="1" vertex="1"><mxGeometry x="739" y="384" width="80" height="18" as="geometry"/></mxCell></root></mxGraphModel></diagram></mxfile>